<svg width="200" height="200" viewBox="0 0 200 200" fill="none" xmlns="http://www.w3.org/2000/svg">
<g clip-path="url(#clip0_5_15)">
<path d="M99.9999 49.9999C109.167 49.9999 116.667 57.4999 116.667 66.6666C116.667 75.8333 109.167 83.3333 99.9999 83.3333C90.8332 83.3333 83.3333 75.8333 83.3333 66.6666C83.3333 57.4999 90.8332 49.9999 99.9999 49.9999ZM99.9999 125C122.5 125 148.333 135.75 150 141.667V150H49.9999V141.75C51.6666 135.75 77.4999 125 99.9999 125ZM99.9999 33.3333C81.5832 33.3333 66.6666 48.2499 66.6666 66.6666C66.6666 85.0833 81.5832 99.9999 99.9999 99.9999C118.417 99.9999 133.333 85.0833 133.333 66.6666C133.333 48.2499 118.417 33.3333 99.9999 33.3333ZM99.9999 108.333C77.7499 108.333 33.3333 119.5 33.3333 141.667V166.667H166.667V141.667C166.667 119.5 122.25 108.333 99.9999 108.333Z" fill="black"/>
<rect x="79" y="49" width="43" height="37" rx="18.5" fill="black"/>
<rect x="45" y="122" width="110" height="36" rx="12" fill="black"/>
</g>
<defs>
<clipPath id="clip0_5_15">
<rect width="200" height="200" fill="white"/>
</clipPath>
</defs>
</svg>
